<svg width="32" height="30" viewBox="0 0 32 30" fill="none" xmlns="http://www.w3.org/2000/svg">
<path d="M27.4285 4.35989L24.1232 1.12653C24.521 1.04178 24.9253 1 25.3333 1C28.4779 1 31 3.49854 31 6.52174C31 8.25839 30.1669 9.88686 28.7416 10.933L28.3333 11.2327V11.7391V26.7391C28.3333 27.9643 27.3065 29 26 29C24.6935 29 23.6667 27.9643 23.6667 26.7391V12.4932V11.8331L23.0597 11.5737C21.0048 10.6953 19.6667 8.70564 19.6667 6.52174C19.6667 6.11317 19.7118 5.70801 19.8041 5.30894L23.1532 8.60045L23.6127 9.05198L24.2138 8.82034L26.2763 8.0255L26.6819 7.86918L26.8443 7.46594L27.6568 5.44827L27.9067 4.82771L27.4285 4.35989Z" stroke="#23ABE1" stroke-width="2"/>
</svg>
