<svg width="29" height="30" viewBox="0 0 29 30" fill="none" xmlns="http://www.w3.org/2000/svg">
<path d="M19.8185 13.5331C19.8632 13.1955 19.8859 12.8501 19.8859 12.5065C19.8859 8.28913 16.5005 4.85799 12.3394 4.85799C8.17834 4.85799 4.7931 8.28913 4.7931 12.5065C4.7931 16.7239 8.17834 20.155 12.3394 20.155C12.7208 20.155 13.03 20.4683 13.03 20.8549C13.03 21.2415 12.7208 21.5549 12.3394 21.5549C7.41678 21.5549 3.41194 17.4958 3.41194 12.5065C3.41194 7.51719 7.41678 3.45813 12.3394 3.45813C17.2621 3.45813 21.267 7.51719 21.267 12.5065C21.267 12.9122 21.2402 13.3202 21.1874 13.7193C21.1366 14.1025 20.7891 14.3712 20.4111 14.3199C20.033 14.2685 19.7678 13.9162 19.8185 13.5331ZM14.2468 27.8238H13.03V24.3131C13.03 23.9265 12.7208 23.6131 12.3394 23.6131C6.29696 23.6131 1.38116 18.6308 1.38116 12.5065C1.38116 6.38229 6.29696 1.39986 12.3394 1.39986C18.3818 1.39986 23.2977 6.38229 23.2977 12.5065C23.2977 13.6442 23.1288 14.7656 22.7958 15.8395C22.6815 16.2083 22.8837 16.6012 23.2476 16.7171C23.6114 16.833 23.9991 16.628 24.1134 16.2592C24.4887 15.0493 24.6789 13.7867 24.6789 12.5065C24.6789 5.61042 19.1434 0 12.3394 0C5.5354 0 0 5.61042 0 12.5065C0 19.1677 5.16487 24.6293 11.6488 24.9936V27.8237H9.04379C8.66236 27.8237 8.35321 28.137 8.35321 28.5236C8.35321 28.9102 8.66236 29.2235 9.04379 29.2235H12.3234C12.3287 29.2236 12.334 29.2237 12.3394 29.2237C12.3448 29.2237 12.3501 29.2236 12.3554 29.2235H14.2468C14.6282 29.2235 14.9374 28.9102 14.9374 28.5236C14.9374 28.137 14.6282 27.8238 14.2468 27.8238ZM15.2997 16.2067C15.4764 16.2067 15.6531 16.1383 15.788 16.0017C16.0577 15.7283 16.0577 15.2852 15.788 15.0118L9.86742 9.01107C9.59771 8.73771 9.1605 8.73779 8.89079 9.01107C8.62107 9.28444 8.62107 9.72757 8.89079 10.0009L14.8114 16.0017C14.9463 16.1384 15.123 16.2067 15.2997 16.2067ZM8.96652 13.0338C8.69681 13.3072 8.69681 13.7503 8.96652 14.0237L12.2236 17.325C12.3585 17.4617 12.5352 17.53 12.7119 17.53C12.8886 17.53 13.0654 17.4617 13.2002 17.325C13.47 17.0517 13.47 16.6085 13.2002 16.3352L9.94316 13.0338C9.67344 12.7605 9.23623 12.7606 8.96652 13.0338ZM25.5403 28.3076C24.0231 29.4298 22.2644 30 20.5668 30C19.3409 30 18.147 29.7028 17.0984 29.1015L16.8309 29.2993C16.523 29.5272 16.0909 29.4588 15.866 29.1465C15.6412 28.8342 15.7087 28.3964 16.0168 28.1685L16.2842 27.9707C16.2587 27.8462 16.2367 27.7212 16.2183 27.5957C14.5489 26.1133 13.7651 23.7176 14.1665 21.2658C14.64 18.3721 16.6697 16.1017 19.2171 15.6162C19.3772 15.5855 19.5429 15.6135 19.6847 15.6948C20.8293 16.3509 21.7222 17.4115 22.2493 18.7253C24.4051 18.0676 26.6855 18.3237 28.4642 19.5311C28.5995 19.623 28.6985 19.7604 28.7436 19.9191C29.5884 22.8946 28.3011 26.2657 25.5403 28.3076ZM17.7203 21.9529L18.1326 19.4327C18.1951 19.0514 18.5506 18.7937 18.9269 18.8568C19.2649 18.9136 19.5047 19.2103 19.5047 19.5466C19.5047 19.5846 19.5016 19.6231 19.4952 19.6619L19.4043 20.2172C19.4704 20.1654 19.5372 20.1146 19.6051 20.0643C20.0402 19.7425 20.4953 19.4661 20.9629 19.2354C20.5872 18.3086 19.9855 17.5501 19.2228 17.0475C17.3605 17.5233 15.8918 19.2769 15.5289 21.4948C15.2965 22.9142 15.5683 24.3398 16.236 25.4543C16.432 24.2213 16.9414 23.016 17.7203 21.9529ZM27.4806 20.5558C25.9373 19.6167 23.9601 19.5263 22.1305 20.2444C22.0974 20.2609 22.0627 20.275 22.0264 20.2863C21.4704 20.5146 20.9294 20.8178 20.4193 21.1952C19.8545 21.613 19.363 22.0954 18.9535 22.6211C18.9319 22.6552 18.9073 22.687 18.8804 22.7164C17.9076 24.0088 17.4225 25.5511 17.544 27.039L24.5261 21.8749C24.8342 21.647 25.2663 21.7155 25.491 22.0277C25.7158 22.3399 25.6483 22.7778 25.3402 23.0057L18.3582 28.1698C20.312 28.9898 22.7523 28.6368 24.7261 27.1769C26.9414 25.5384 28.0256 22.9073 27.4806 20.5558ZM14.2663 11.3124C14.443 11.3124 14.6197 11.2441 14.7546 11.1074C15.0243 10.8341 15.0243 10.3909 14.7546 10.1176L12.3497 7.68004C12.08 7.40668 11.6428 7.40675 11.373 7.68004C11.1033 7.9534 11.1033 8.39653 11.373 8.6699L13.778 11.1074C13.9129 11.2442 14.0896 11.3124 14.2663 11.3124Z" fill="#23ABE1"/>
</svg>
