<svg width="30" height="32" viewBox="0 0 30 32" fill="none" xmlns="http://www.w3.org/2000/svg">
<path d="M9.15222 15.5292C8.0606 17.134 8.44695 19.1783 10.2491 20.8091L9.35328 21.9021L10.3144 22.6516L11.2101 21.5586C13.4337 23.0289 15.6586 22.909 17.0303 21.2352C18.2015 19.806 18.0066 18.2985 16.537 16.3892L16.0094 15.7023L18.8102 12.2847C19.763 13.1899 20.0157 14.2768 19.5272 15.2248L20.8818 16.2812C21.9074 14.7237 21.487 12.7044 19.7376 11.153L20.6275 10.0672L19.6664 9.31767L18.7581 10.426C16.802 9.23938 14.6606 9.39934 13.42 10.9131C12.349 12.2201 12.4811 13.8392 13.7233 15.4473L14.166 16.0313L11.1966 19.6547C10.263 18.6762 9.99824 17.5415 10.4985 16.5791L9.15222 15.5292ZM15.1027 14.5178C14.3354 13.5319 14.2361 12.6265 14.8188 11.9155C15.5142 11.0669 16.6764 10.9463 17.8241 11.5658L15.2495 14.7074L15.102 14.5187L15.1027 14.5178ZM15.1898 17.3439C16.1378 18.559 16.2635 19.4468 15.5932 20.2648C14.7851 21.2509 13.4855 21.3144 12.1376 20.4269L14.9332 17.0156L15.1905 17.343L15.1898 17.3439Z" fill="#194DD4"/>
<path d="M27.4803 18.0283L16.8709 30.4476C15.9425 31.4825 14.8595 32 13.6217 32C12.5166 32 11.5662 31.6766 10.7704 31.0297L1.55352 23.4617C0.669403 22.6855 0.161036 21.7153 0.0284176 20.551C-0.1042 19.4729 0.227345 18.4164 1.02305 17.3815L11.6325 4.96217C12.7818 3.49601 14.2848 2.56887 16.1415 2.18077L25.3584 0.110887C26.2425 -0.147849 27.0824 0.0462027 27.8781 0.693041L29.0054 1.6633C29.6685 2.13765 30 2.91385 30 3.99191L29.4695 13.2417C29.2485 15.096 28.5854 16.6915 27.4803 18.0283ZM25.8889 2.76292L16.5393 4.96217C15.5668 5.17778 14.5943 5.75994 13.6217 6.70863L3.01231 19.1279C2.65867 19.4729 2.54815 19.861 2.68077 20.2922C2.68077 20.551 2.8797 20.9175 3.27755 21.3919L12.4945 28.9599C12.8039 29.2186 13.1797 29.3372 13.6217 29.3156C14.0638 29.2941 14.3953 29.1324 14.6164 28.8305L25.2258 16.4112C26.0657 15.3763 26.4856 14.3198 26.4856 13.2417L27.1487 3.73318L25.8889 2.76292Z" fill="#194DD4"/>
</svg>
