<svg width="30" height="30" viewBox="0 0 30 30" fill="none" xmlns="http://www.w3.org/2000/svg">
<path d="M16.3011 7.47843C15.9674 7.14476 15.4899 6.9519 14.9878 6.9519C14.4889 6.9519 14.0083 7.14476 13.6746 7.47843L6.75009 14.406C6.47458 14.6815 6.47458 15.1284 6.75009 15.407C6.88478 15.5417 7.06233 15.6152 7.24907 15.6152C7.43887 15.6152 7.61642 15.5417 7.75111 15.407L14.6756 8.47946C14.7521 8.40292 14.8685 8.35701 14.9878 8.35701C15.1072 8.35701 15.2236 8.39986 15.297 8.47946L22.2491 15.4315C22.3838 15.5631 22.5613 15.6366 22.7481 15.6366C22.9378 15.6366 23.1154 15.5631 23.2501 15.4315C23.5256 15.1529 23.5256 14.706 23.2501 14.4305L16.3011 7.47843Z" fill="#23ABE1"/>
<path d="M19.5153 14.3694C19.2398 14.0908 18.7898 14.0908 18.5143 14.3694C18.2388 14.6449 18.2388 15.0949 18.5143 15.3704L19.9439 16.8C19.9286 16.8 19.9133 16.7908 19.898 16.7908H14.948H14.9449C14.5561 16.7908 14.2378 17.1092 14.2378 17.498V21.6276H11.9725H10.8643C10.4327 21.6276 10.3439 21.2694 10.3255 21.1163L10.3286 14.6786C10.3286 14.2867 10.0102 13.9714 9.62145 13.9714C9.23267 13.9714 8.91431 14.2898 8.91431 14.6786V21.1806C8.96635 21.8357 9.44084 23.0418 10.8643 23.0418L21.0245 23.0388C21.0306 23.0388 21.0368 23.0418 21.0459 23.0418C21.4378 23.0418 21.7531 22.7265 21.7531 22.3347C21.7531 21.949 21.4408 21.6337 21.0551 21.6306V21.6276H16.8245H15.6521V18.2051H19.901C19.9041 18.2051 19.9102 18.202 19.9133 18.202L18.5541 19.5612C18.2786 19.8367 18.2786 20.2867 18.5541 20.5623C18.8296 20.8378 19.2796 20.8378 19.5551 20.5623L22.1204 17.9969C22.2612 17.8561 22.3286 17.6694 22.3255 17.4827C22.3286 17.299 22.2643 17.1123 22.1204 16.9684L19.5153 14.3694Z" fill="#23ABE1"/>
<path d="M15 0C6.72857 0 0 6.72857 0 15C0 23.2684 6.72857 30 15 30C23.2714 30 30 23.2714 30 15C30 6.72857 23.2714 0 15 0ZM15 28.0684C7.79388 28.0684 1.92857 22.2061 1.92857 15C1.92857 7.79388 7.79082 1.92857 15 1.92857C22.2061 1.93163 28.0714 7.79388 28.0714 15C28.0714 22.2061 22.2061 28.0684 15 28.0684Z" fill="#23ABE1"/>
</svg>
