<svg width="22" height="30" viewBox="0 0 22 30" fill="none" xmlns="http://www.w3.org/2000/svg">
<path d="M8.15105 22.9625C8.15105 23.3516 7.84158 23.6671 7.45981 23.6671H4.83952C4.45775 23.6671 4.14828 23.3516 4.14828 22.9625C4.14828 22.5733 4.45775 22.2578 4.83952 22.2578H7.45981C7.84158 22.2578 8.15105 22.5733 8.15105 22.9625ZM12.5815 9.64233H15.2018C15.5836 9.64233 15.893 9.32685 15.893 8.93766C15.893 8.54848 15.5836 8.233 15.2018 8.233H12.5815C12.1997 8.233 11.8902 8.54848 11.8902 8.93766C11.8902 9.32685 12.1998 9.64233 12.5815 9.64233ZM12.5815 12.627H15.2018C15.5836 12.627 15.893 12.3115 15.893 11.9223C15.893 11.5332 15.5836 11.2177 15.2018 11.2177H12.5815C12.1997 11.2177 11.8902 11.5332 11.8902 11.9223C11.8902 12.3115 12.1998 12.627 12.5815 12.627ZM9.5795 14.1713H4.83952C4.45775 14.1713 4.14828 14.4868 4.14828 14.8759C4.14828 15.2651 4.45775 15.5806 4.83952 15.5806H9.5795C9.96127 15.5806 10.2707 15.2651 10.2707 14.8759C10.2707 14.4868 9.96127 14.1713 9.5795 14.1713ZM9.53457 19.2878H4.83945C4.45768 19.2878 4.14821 19.6033 4.14821 19.9925C4.14821 20.3817 4.45768 20.6972 4.83945 20.6972H9.53457C9.91634 20.6972 10.2258 20.3817 10.2258 19.9925C10.2258 19.6033 9.91634 19.2878 9.53457 19.2878ZM22 20.3746V24.9718C22 27.7444 19.7873 30 17.0675 30C15.7804 30 14.6069 29.4949 13.7277 28.6689H0.691241C0.309469 28.6689 0 28.3534 0 27.9642V0.704719C0 0.315534 0.309469 5.54369e-05 0.691241 5.54369e-05H14.6045C14.7839 -0.00226995 14.9613 0.0686193 15.0944 0.201801C15.0945 0.201871 15.0946 0.201942 15.0946 0.202012C15.0951 0.202435 15.0955 0.202858 15.0959 0.203351C15.0962 0.203633 15.0966 0.203985 15.0968 0.204267C15.0971 0.204478 15.0973 0.20469 15.0975 0.204901C15.098 0.205395 15.0985 0.205958 15.099 0.206452L19.839 5.03847C19.8394 5.03897 19.8399 5.03946 19.8404 5.03995C19.8404 5.04002 19.8406 5.04016 19.8407 5.04031C19.841 5.04066 19.8415 5.04108 19.8419 5.0415C19.8419 5.04157 19.842 5.04165 19.8421 5.04179C19.939 5.14178 20.002 5.26643 20.028 5.39863V5.3987C20.0282 5.40011 20.0285 5.40152 20.0288 5.40286V5.40293C20.0289 5.40363 20.0291 5.40427 20.0292 5.40497V5.40504C20.0376 5.45028 20.0418 5.49636 20.0414 5.54266V19.4682C20.5097 19.5257 20.9737 19.5968 21.432 19.6814C21.7609 19.7421 22 20.0339 22 20.3746ZM15.3015 4.83208H17.6814L15.3015 2.40592V4.83208ZM12.1349 24.9719V20.3746C12.1349 20.0339 12.374 19.742 12.7029 19.6813C14.1169 19.42 15.5853 19.2876 17.0674 19.2876C17.6004 19.2876 18.1315 19.3048 18.659 19.3389V6.24141H14.6102C14.2284 6.24141 13.919 5.92593 13.919 5.53674V1.40938H1.38248V27.2597H12.6757C12.33 26.5729 12.1349 25.7953 12.1349 24.9719ZM20.6175 20.9709C19.4609 20.789 18.2694 20.697 17.0674 20.697C15.8654 20.697 14.6739 20.789 13.5174 20.9709V24.9718C13.5174 26.9673 15.1099 28.5907 17.0674 28.5907C19.0249 28.5907 20.6175 26.9672 20.6175 24.9718V20.9709ZM16.3761 22.7193V23.9392H15.1796C14.7978 23.9392 14.4883 24.2547 14.4883 24.6439C14.4883 25.033 14.7978 25.3485 15.1796 25.3485H16.3761V26.5685C16.3761 26.9577 16.6856 27.2732 17.0674 27.2732C17.4491 27.2732 17.7586 26.9577 17.7586 26.5685V25.3485H18.9554C19.3372 25.3485 19.6467 25.033 19.6467 24.6439C19.6467 24.2547 19.3372 23.9392 18.9554 23.9392H17.7586V22.7193C17.7586 22.3301 17.4491 22.0146 17.0674 22.0146C16.6856 22.0146 16.3761 22.3301 16.3761 22.7193ZM15.2018 15.5806C15.5836 15.5806 15.893 15.2651 15.893 14.8759C15.893 14.4868 15.5836 14.1713 15.2018 14.1713H12.5815C12.1997 14.1713 11.8902 14.4868 11.8902 14.8759C11.8902 15.2651 12.1997 15.5806 12.5815 15.5806H15.2018ZM9.5795 11.2177H4.83952C4.45775 11.2177 4.14828 11.5332 4.14828 11.9223C4.14828 12.3115 4.45775 12.627 4.83952 12.627H9.5795C9.96127 12.627 10.2707 12.3115 10.2707 11.9223C10.2707 11.5332 9.96127 11.2177 9.5795 11.2177ZM9.5795 8.233H4.83952C4.45775 8.233 4.14828 8.54848 4.14828 8.93766C4.14828 9.32685 4.45775 9.64233 4.83952 9.64233H9.5795C9.96127 9.64233 10.2707 9.32685 10.2707 8.93766C10.2707 8.54848 9.96127 8.233 9.5795 8.233Z" fill="#23ABE1"/>
</svg>
