<svg width="33" height="30" viewBox="0 0 33 30" fill="none" xmlns="http://www.w3.org/2000/svg">
<path d="M32.3427 10.6949H31.9022C31.473 8.5411 29.2717 4.74896 28.2971 3.14279C28.754 2.83194 29.0544 2.31143 29.0544 1.7227C29.0544 0.772835 28.273 0 27.3127 0C26.3523 0 25.571 0.772772 25.571 1.7227C25.571 2.31143 25.8714 2.83194 26.3283 3.14279C25.3539 4.74896 23.1525 8.5411 22.7233 10.6949H22.2828C21.9198 10.6949 21.6255 10.986 21.6255 11.3451C21.6255 14.4468 24.1768 16.9702 27.3128 16.9702C30.4488 16.9702 33.0001 14.4468 33.0001 11.3451C33.0001 10.986 32.7057 10.6949 32.3427 10.6949ZM27.3127 1.30043C27.5481 1.30043 27.7397 1.48989 27.7397 1.7227C27.7397 1.95552 27.5481 2.14492 27.3127 2.14492C27.0773 2.14492 26.8859 1.95552 26.8859 1.7227C26.8859 1.48989 27.0773 1.30043 27.3127 1.30043ZM27.3117 4.04803C28.4241 5.90518 30.142 8.99869 30.5645 10.6949H24.063C24.4619 9.10675 26.0075 6.2159 27.3117 4.04803ZM27.3127 15.6699C25.1251 15.6699 23.3075 14.0726 22.9895 11.9952H31.6361C31.318 14.0726 29.5005 15.6699 27.3127 15.6699Z" fill="#23ABE1"/>
<path d="M22.3513 26.263H20.6134V24.6117C20.6134 24.2526 20.319 23.9615 19.956 23.9615H18.2865V5.79911C18.7165 5.37874 18.9935 4.80557 19.0256 4.16954L21.8052 3.57795C22.1601 3.5024 22.386 3.15656 22.3096 2.80549C22.2331 2.45443 21.8835 2.2313 21.5286 2.30665L18.7425 2.89972C18.3245 2.11483 17.4918 1.57812 16.5342 1.57812C15.2082 1.57812 14.121 2.60679 14.0445 3.89963L7.09387 5.379C6.77676 4.95003 6.26455 4.67068 5.68737 4.67068C4.72701 4.67068 3.94565 5.44345 3.94565 6.39338C3.94565 6.98211 4.246 7.50269 4.70297 7.81346C3.72844 9.41963 1.52716 13.2118 1.09796 15.3655H0.657489C0.294294 15.3655 0 15.6566 0 16.0157C0 19.1175 2.55132 21.6409 5.68731 21.6409C8.82329 21.6409 11.3746 19.1175 11.3746 16.0157C11.3746 15.6566 11.0803 15.3655 10.7173 15.3655H10.2768C9.84758 13.2117 7.64624 9.41963 6.67177 7.81346C7.06326 7.54718 7.3395 7.12701 7.41073 6.64181L14.3163 5.17207C14.4378 5.40501 14.5953 5.61666 14.782 5.79923V23.9617H13.1126C12.7495 23.9617 12.4552 24.2528 12.4552 24.6119V26.2631H10.7173C10.3542 26.2631 10.06 26.5542 10.06 26.9133V29.3499C10.06 29.709 10.3542 30.0001 10.7173 30.0001H22.3513C22.7143 30.0001 23.0086 29.709 23.0086 29.3499V26.9131C23.0086 26.554 22.7143 26.263 22.3513 26.263ZM5.68731 5.97098C5.92269 5.97098 6.11424 6.16044 6.11424 6.39325C6.11424 6.62607 5.92269 6.81547 5.68731 6.81547C5.45192 6.81547 5.26037 6.62607 5.26037 6.39325C5.26037 6.16044 5.45192 5.97098 5.68731 5.97098ZM5.68731 20.3404C3.49963 20.3404 1.68204 18.7432 1.36403 16.6658H10.0106C9.69257 18.7432 7.87498 20.3404 5.68731 20.3404ZM8.93911 15.3654H2.43756C2.83653 13.7773 4.38219 10.8864 5.68634 8.71858C6.79868 10.5757 8.51655 13.6692 8.93911 15.3654ZM16.5343 2.87836C17.1848 2.87836 17.714 3.40174 17.714 4.04517C17.714 4.68859 17.1848 5.21197 16.5343 5.21197C15.8838 5.21197 15.3546 4.68859 15.3546 4.04517C15.3546 3.40174 15.8838 2.87836 16.5343 2.87836ZM16.9719 6.4737V23.9616H16.0967V6.47364C16.2389 6.49869 16.385 6.51246 16.5344 6.51246C16.6838 6.51246 16.8297 6.49863 16.9719 6.4737ZM13.7699 25.2619H19.2986V26.263H13.7699V25.2619ZM21.6939 28.6997H11.3747V27.5633H21.6939V28.6997Z" fill="#23ABE1"/>
<path d="M24.8413 2.30674C24.7649 1.95567 24.4152 1.73236 24.0602 1.8079L23.5812 1.90984C23.2263 1.98538 23.0005 2.33122 23.0769 2.68229C23.1433 2.98727 23.4158 3.19579 23.7189 3.19579C23.7648 3.19579 23.8113 3.19107 23.8579 3.18113L24.3369 3.07919C24.6917 3.00365 24.9176 2.65781 24.8413 2.30674Z" fill="#23ABE1"/>
</svg>
