<svg width="24" height="30" viewBox="0 0 24 30" fill="none" xmlns="http://www.w3.org/2000/svg">
<path d="M9.12231 13.9273C8.85968 13.6365 8.88816 13.1926 9.18875 12.9386C9.48935 12.6845 9.94815 12.7151 10.2108 13.0029L12.182 15.1761L17.694 10.4103C17.9914 10.1532 18.4502 10.1776 18.716 10.4654C18.9818 10.7531 18.9565 11.1969 18.659 11.4541L12.6218 16.676C12.3118 16.9514 11.8466 16.9331 11.5745 16.6301L9.12231 13.9273ZM4.97412 21.2061H19.0229V22.1428H4.97412V21.2061ZM4.97412 23.6671H19.0229V24.6037H4.97412V23.6671Z" fill="#23ABE1"/>
<path d="M12.7705 1.48148C12.5743 1.29171 12.299 1.17233 11.9984 1.17233C11.6978 1.17233 11.4257 1.29171 11.2264 1.48148C11.0302 1.67126 10.9068 1.9345 10.9068 2.22528C10.9068 2.51607 11.0302 2.77931 11.2264 2.96908C11.4099 3.14968 11.663 3.26293 11.9415 3.27824H12.0522C12.3307 3.26293 12.5806 3.14968 12.7673 2.96908C12.9635 2.77931 13.0869 2.51607 13.0869 2.22528C13.09 1.9345 12.9666 1.67126 12.7705 1.48148ZM11.9984 0C12.7009 0 13.3368 0.0397918 13.7956 0.486685C14.2544 0.930517 14.5424 1.54576 14.5424 2.22528H17.4502V5.73921H6.54661V2.22528H9.45445C9.45445 1.54576 9.73922 0.930517 10.198 0.486685C10.66 0.0397918 11.296 0 11.9984 0ZM2.42373 3.2813H5.57838V4.68626H2.42373C2.15794 4.68626 1.9143 4.79033 1.74028 4.96174C1.56309 5.13315 1.4555 5.36578 1.4555 5.6229V27.6523C1.4555 28.1665 1.89216 28.5889 2.42373 28.5889H21.5763C22.1078 28.5889 22.5445 28.1635 22.5445 27.6523V5.6229C22.5445 5.36578 22.4338 5.13315 22.2597 4.96174C22.0825 4.79033 21.8421 4.68626 21.5763 4.68626H18.4216V3.2813H21.5763C22.2439 3.2813 22.8483 3.54454 23.2881 3.97C23.7279 4.39547 24 4.9801 24 5.62596V27.6553C24 28.944 22.9115 30 21.5763 30H2.42373C1.09163 30 0 28.947 0 27.6553V5.6229C0 4.97704 0.272116 4.39241 0.711931 3.96694C1.14858 3.54454 1.7561 3.2813 2.42373 3.2813ZM11.9984 10.6734C9.5652 8.26752 5.70178 10.1255 5.70178 13.1925C5.70178 15.8341 9.72024 18.8246 11.7959 19.7582C11.9193 19.8133 12.0649 19.8163 12.1978 19.7582C14.3051 18.8093 18.3805 15.7912 18.2887 13.0732C17.9185 13.3946 17.5452 13.7098 17.1623 14.022C16.9187 14.6679 16.4219 15.3474 15.8112 15.9933C14.6721 17.1962 13.1438 18.2583 11.9953 18.8154C10.8467 18.2583 9.31839 17.1962 8.1793 15.9933C7.29651 15.0627 6.66051 14.0618 6.66051 13.1925C6.66051 10.8601 9.78036 9.3419 11.6156 11.6682C11.8086 11.9131 12.1883 11.9039 12.3749 11.6621C13.2483 10.551 14.6025 10.199 15.8175 10.8111C16.0707 10.5938 16.3175 10.3765 16.5643 10.153C15.0961 9.23477 13.2672 9.42761 11.9984 10.6734Z" fill="#23ABE1"/>
</svg>
