<svg width="32" height="28" viewBox="0 0 32 28" fill="none" xmlns="http://www.w3.org/2000/svg">
<path d="M30.8937 11.8821C30.1384 9.88001 29.043 7.93225 27.7292 6.25239C26.2579 4.37342 24.5682 2.8782 22.7139 1.81381C20.6161 0.611843 18.3716 0 16.0411 0C13.682 0 11.416 0.604603 9.3075 1.79933C7.43884 2.85648 5.74559 4.34445 4.27071 6.21619C2.95692 7.88518 1.8615 9.8257 1.10974 11.8242C0.383039 13.7466 0 15.64 0 17.2945C0 18.8042 0.329342 20.075 0.948649 20.9692C1.65029 21.9829 2.71707 22.5187 4.03086 22.5187C5.01173 22.5187 5.85657 22.2798 6.52599 21.8454C7.38872 23.7207 9.2359 24.9227 11.2836 24.9227C11.9208 24.9227 12.5329 24.8068 13.0985 24.5932V25.1037C13.0985 26.7003 14.3837 28 15.9624 28C17.5411 28 18.8262 26.7003 18.8262 25.1037V24.5679C19.4097 24.796 20.0398 24.9227 20.6985 24.9227C22.7568 24.9227 24.604 23.7062 25.4596 21.8092C26.1362 22.2653 26.9989 22.5151 28.0048 22.5151C29.3079 22.5151 30.3675 21.9866 31.062 20.9873C31.6777 20.104 31.9999 18.8477 31.9999 17.3561C32.0071 15.7088 31.6204 13.8117 30.8937 11.8821ZM17.7523 25.1109C17.7523 26.1102 16.9504 26.9211 15.9624 26.9211C14.9743 26.9211 14.1725 26.1102 14.1725 25.1109V24.0465C14.6665 23.7135 15.1032 23.2971 15.4612 22.8192V24.4774C15.4612 24.7779 15.701 25.0204 15.9982 25.0204C16.2953 25.0204 16.5351 24.7779 16.5351 24.4774V22.8229C16.8752 23.279 17.2869 23.6773 17.7523 23.9995V25.1109ZM15.9946 19.0432H15.9874L13.3742 17.5661L14.1188 16.4872H17.8561L18.6007 17.5661L15.9946 19.0432ZM30.1885 20.3682C29.6945 21.0778 28.9642 21.4363 28.0084 21.4363C27.0741 21.4363 26.2973 21.1756 25.7567 20.6796C25.1947 20.1655 24.9119 19.4233 24.9119 18.4784C24.9119 16.4039 24.8976 13.7647 24.8868 11.835C24.8797 10.5932 24.8725 9.6121 24.8725 9.11973C24.8725 8.81924 24.6327 8.57667 24.3355 8.57667C24.0384 8.57667 23.7986 8.81924 23.7986 9.11973C23.7986 9.61572 23.8057 10.5968 23.8129 11.8386C23.8236 13.7647 23.8379 16.4076 23.8379 18.4748C23.8379 19.5066 24.1279 20.3863 24.6506 21.0597C24.6076 21.1068 24.5718 21.1611 24.5467 21.2227C23.8988 22.812 22.3881 23.8402 20.702 23.8402C18.5327 23.8402 16.7463 22.135 16.553 19.9664L19.2057 18.4639C19.4491 18.3264 19.6245 18.0874 19.6889 17.8123C19.7498 17.5371 19.6961 17.2475 19.535 17.0158L18.7117 15.8283C18.5255 15.5604 18.2212 15.4011 17.899 15.4011H14.0794C13.7536 15.4011 13.4493 15.5604 13.2668 15.8283L12.4434 17.0194C12.2823 17.2511 12.2286 17.5407 12.2895 17.8159C12.3503 18.091 12.5257 18.33 12.7692 18.4675L15.4433 19.9845C15.2464 22.1458 13.4565 23.8438 11.2836 23.8438C9.60105 23.8438 8.09037 22.8229 7.43526 21.2444C7.41378 21.1937 7.38514 21.1466 7.35293 21.1068C7.90064 20.4298 8.20134 19.5356 8.20134 18.4784C8.20134 16.4076 8.21566 13.7683 8.2264 11.8423C8.23356 10.6005 8.24072 9.61572 8.24072 9.12335C8.24072 8.82286 8.00087 8.58029 7.70375 8.58029C7.40662 8.58029 7.16678 8.82286 7.16678 9.12335C7.16678 9.61572 7.15962 10.5968 7.15246 11.8386C7.14172 13.7683 7.1274 16.4076 7.1274 18.482C7.1274 19.4269 6.84101 20.1691 6.28256 20.6832C5.74201 21.1792 4.96519 21.4399 4.03086 21.4399C3.0679 21.4399 2.32688 21.0742 1.82928 20.3538C1.33527 19.6442 1.07752 18.587 1.07752 17.3018C1.07752 15.774 1.4355 14.0181 2.11567 12.2152C2.83163 10.3181 3.86619 8.48254 5.11555 6.89682C6.50093 5.13369 8.09037 3.73985 9.83731 2.75149C11.7847 1.64727 13.8718 1.08973 16.0447 1.08973C18.189 1.08973 20.2546 1.65089 22.1876 2.76235C23.9239 3.75795 25.5061 5.15904 26.8915 6.9294C29.3508 10.0719 30.9367 14.1665 30.9367 17.3633C30.9331 18.6305 30.6754 19.6695 30.1885 20.3682Z" fill="#23ABE1"/>
<path d="M10.521 12.8922C10.521 13.1322 10.6153 13.3624 10.7831 13.5322C10.951 13.7019 11.1786 13.7972 11.4159 13.7972C11.6533 13.7972 11.8809 13.7019 12.0488 13.5322C12.2166 13.3624 12.3109 13.1322 12.3109 12.8922C12.3109 12.6521 12.2166 12.4219 12.0488 12.2522C11.8809 12.0824 11.6533 11.9871 11.4159 11.9871C11.1786 11.9871 10.951 12.0824 10.7831 12.2522C10.6153 12.4219 10.521 12.6521 10.521 12.8922Z" fill="#23ABE1"/>
<path d="M19.6853 12.8922C19.6853 13.1322 19.7796 13.3624 19.9474 13.5322C20.1153 13.7019 20.3429 13.7972 20.5803 13.7972C20.8176 13.7972 21.0452 13.7019 21.2131 13.5322C21.3809 13.3624 21.4752 13.1322 21.4752 12.8922C21.4752 12.6521 21.3809 12.4219 21.2131 12.2522C21.0452 12.0824 20.8176 11.9871 20.5803 11.9871C20.3429 11.9871 20.1153 12.0824 19.9474 12.2522C19.7796 12.4219 19.6853 12.6521 19.6853 12.8922Z" fill="#23ABE1"/>
</svg>
