<svg width="21" height="29" viewBox="0 0 21 29" fill="none" xmlns="http://www.w3.org/2000/svg">
<path d="M6.90774 0.184331C6.47325 0.172006 6.11691 0.501677 6.11691 0.910037V6.36532C6.11691 6.76334 5.77596 7.08603 5.35522 7.08603H5.35413C4.93348 7.08603 4.59244 6.76342 4.59244 6.36532V0.940375C4.59244 0.542788 4.26862 0.196139 3.8487 0.184245C3.4142 0.17192 3.05786 0.50159 3.05786 0.90995V6.36523C3.05786 6.76325 2.71691 7.08594 2.29617 7.08594C1.87543 7.08594 1.53449 6.76334 1.53449 6.36523V0.940288C1.53449 0.542702 1.21067 0.196053 0.790744 0.184159C0.356249 0.172093 0 0.501763 0 0.910037V7.81208C0 8.77816 0.397604 9.6871 1.12049 10.3723C1.65891 10.8809 2.32924 11.219 3.05795 11.3587V20.2397C2.37451 20.3937 1.842 20.9516 1.7827 21.6365L1.39804 26.0224C1.33992 26.684 1.57903 27.3437 2.05415 27.8324C2.52945 28.3212 3.20488 28.6015 3.90699 28.6015C4.60865 28.6015 5.28353 28.3213 5.75883 27.8326C6.23405 27.3439 6.47316 26.6841 6.41504 26.0228L6.03128 21.6358C5.96561 20.8972 5.35158 20.3066 4.59253 20.2112V11.3584C6.33598 11.0214 7.65148 9.55937 7.65148 7.81208V0.940461C7.65157 0.542874 7.32775 0.196225 6.90774 0.184331ZM4.88565 26.1428C4.9087 26.4049 4.81779 26.6558 4.6296 26.8493C4.44132 27.0428 4.18481 27.1494 3.90699 27.1494C3.62862 27.1494 3.37175 27.0427 3.18338 26.8491C2.99528 26.6556 2.90428 26.4049 2.92742 26.1427L3.31209 21.7558C3.31737 21.6954 3.37194 21.6481 3.43652 21.6481H4.37774C4.44205 21.6481 4.4967 21.6961 4.50208 21.7565L4.88565 26.1428ZM3.8252 9.97954C3.21353 9.97954 2.63803 9.75407 2.20545 9.34571C1.96097 9.11378 1.78097 8.83797 1.66857 8.53821H5.98428C5.66784 9.37717 4.81971 9.97954 3.8252 9.97954Z" fill="#23ABE1"/>
<path d="M19.634 10.1C20.5403 9.23627 21 7.96224 21 6.31355C21 4.68028 20.5488 3.13492 19.7296 1.96216C18.8457 0.696832 17.6384 0 16.3297 0C15.0212 0 13.8136 0.696919 12.9298 1.96216C12.1106 3.13492 11.6594 4.68019 11.6594 6.31355C11.6594 7.96233 12.119 9.23619 13.0254 10.1C13.6747 10.7186 14.5421 11.102 15.5625 11.2282V20.2224C14.8398 20.3484 14.2671 20.9243 14.2054 21.6365L13.8207 26.0225C13.7626 26.6841 14.0017 27.3438 14.4768 27.8324C14.9521 28.3212 15.6275 28.6016 16.3297 28.6016C17.0313 28.6016 17.7062 28.3213 18.1815 27.8327C18.6567 27.344 18.8958 26.6842 18.8377 26.0229L18.4539 21.6359C18.3907 20.924 17.8181 20.3489 17.0969 20.2227V11.2283C18.1174 11.102 18.9846 10.7186 19.634 10.1ZM17.3082 26.1428C17.3314 26.4048 17.2404 26.6558 17.0522 26.8493C16.864 27.0428 16.6074 27.1494 16.3296 27.1494C16.0512 27.1494 15.7943 27.0427 15.6059 26.8491C15.4178 26.6556 15.3269 26.4049 15.35 26.1426L15.7347 21.7557C15.7399 21.6953 15.7945 21.6481 15.859 21.6481H16.8002C16.8645 21.6481 16.9193 21.6961 16.9246 21.7564L17.3082 26.1428ZM16.3297 9.82261C14.249 9.82261 13.1939 8.64201 13.1939 6.31355C13.1939 3.67834 14.6299 1.4521 16.3297 1.4521C18.0293 1.4521 19.4653 3.67834 19.4653 6.31355C19.4653 8.64201 18.4103 9.82261 16.3297 9.82261Z" fill="#23ABE1"/>
</svg>
