<svg width="22" height="20" viewBox="0 0 22 20" fill="none" xmlns="http://www.w3.org/2000/svg">
<path d="M21.6673 2.83341C20.9173 3.25008 20.0007 3.50008 19.1673 3.58341C20.084 3.00008 20.7507 2.08341 21.084 1.00008C20.2507 1.50008 19.334 1.91675 18.2507 2.16675C17.4173 1.25008 16.334 0.666748 15.084 0.666748C12.6673 0.666748 10.6673 2.75008 10.6673 5.41675C10.6673 5.75008 10.6673 6.16675 10.7507 6.50008C7.08398 6.33341 3.83398 4.41675 1.66732 1.58341C1.25065 2.25008 1.08398 3.08341 1.08398 4.00008C1.08398 5.66675 1.83398 7.08342 3.00065 7.91675C2.25065 7.91675 1.58398 7.66675 1.00065 7.33341V7.41675C1.00065 9.66675 2.50065 11.5834 4.50065 12.0834C4.16732 12.1667 3.75065 12.2501 3.33398 12.2501C3.08398 12.2501 2.75065 12.2501 2.50065 12.1667C3.08398 14.0834 4.66732 15.4167 6.58399 15.4167C5.08399 16.6667 3.16732 17.4167 1.16732 17.4167C0.833984 17.4167 0.500651 17.4167 0.0839844 17.3334C2.00065 18.6667 4.33398 19.5001 6.83398 19.5001C14.9173 19.5001 19.334 12.3334 19.334 6.08341C19.334 5.91675 19.334 5.66675 19.334 5.50008C20.334 4.66675 21.084 3.83341 21.6673 2.83341Z" fill="white"/>
</svg>
